{
	"asset":{
		"generator":"Khronos glTF Blender I/O v4.2.57",
		"version":"2.0"
	},
	"scene":0,
	"scenes":[
		{
			"extras":{
				"sprytile_data":{
					"auto_reload":false,
					"world_pixels":32
				}
			},
			"name":"Scene",
			"nodes":[
				0
			]
		}
	],
	"nodes":[
		{
			"mesh":0,
			"name":"arena.003"
		}
	],
	"materials":[
		{
			"doubleSided":true,
			"name":"Material.005",
			"pbrMetallicRoughness":{
				"baseColorTexture":{
					"index":0
				},
				"metallicFactor":0,
				"roughnessFactor":0.5
			}
		},
		{
			"doubleSided":true,
			"name":"Material.007",
			"pbrMetallicRoughness":{
				"baseColorTexture":{
					"index":1
				},
				"metallicFactor":0,
				"roughnessFactor":0.5
			}
		},
		{
			"doubleSided":true,
			"name":"support",
			"pbrMetallicRoughness":{
				"baseColorTexture":{
					"index":2
				},
				"metallicFactor":0,
				"roughnessFactor":0.5
			}
		},
		{
			"doubleSided":true,
			"name":"Material.006",
			"pbrMetallicRoughness":{
				"baseColorTexture":{
					"index":3
				},
				"metallicFactor":0,
				"roughnessFactor":0.5
			}
		}
	],
	"meshes":[
		{
			"name":"Plane.005",
			"primitives":[
				{
					"attributes":{
						"POSITION":0,
						"NORMAL":1,
						"TEXCOORD_0":2
					},
					"indices":3,
					"material":0
				},
				{
					"attributes":{
						"POSITION":4,
						"NORMAL":5,
						"TEXCOORD_0":6
					},
					"indices":7,
					"material":1
				},
				{
					"attributes":{
						"POSITION":8,
						"NORMAL":9,
						"TEXCOORD_0":10
					},
					"indices":11,
					"material":2
				},
				{
					"attributes":{
						"POSITION":12,
						"NORMAL":13,
						"TEXCOORD_0":14
					},
					"indices":15,
					"material":3
				}
			]
		}
	],
	"textures":[
		{
			"sampler":0,
			"source":0
		},
		{
			"sampler":0,
			"source":1
		},
		{
			"sampler":0,
			"source":2
		},
		{
			"sampler":0,
			"source":3
		}
	],
	"images":[
		{
			"mimeType":"image/png",
			"name":"ground",
			"uri":"ground.png"
		},
		{
			"mimeType":"image/png",
			"name":"gate",
			"uri":"gate.png"
		},
		{
			"mimeType":"image/png",
			"name":"support",
			"uri":"support.png"
		},
		{
			"mimeType":"image/png",
			"name":"wall",
			"uri":"wall.png"
		}
	],
	"accessors":[
		{
			"bufferView":0,
			"componentType":5126,
			"count":28,
			"max":[
				27.474761962890625,
				0,
				14.108576774597168
			],
			"min":[
				-27.474761962890625,
				0,
				-27.474761962890625
			],
			"type":"VEC3"
		},
		{
			"bufferView":1,
			"componentType":5126,
			"count":28,
			"type":"VEC3"
		},
		{
			"bufferView":2,
			"componentType":5126,
			"count":28,
			"type":"VEC2"
		},
		{
			"bufferView":3,
			"componentType":5123,
			"count":72,
			"type":"SCALAR"
		},
		{
			"bufferView":4,
			"componentType":5126,
			"count":2718,
			"max":[
				27.474761962890625,
				6.427243232727051,
				10.599353790283203
			],
			"min":[
				-27.474761962890625,
				0,
				-27.474761962890625
			],
			"type":"VEC3"
		},
		{
			"bufferView":5,
			"componentType":5126,
			"count":2718,
			"type":"VEC3"
		},
		{
			"bufferView":6,
			"componentType":5126,
			"count":2718,
			"type":"VEC2"
		},
		{
			"bufferView":7,
			"componentType":5123,
			"count":6138,
			"type":"SCALAR"
		},
		{
			"bufferView":8,
			"componentType":5126,
			"count":248,
			"max":[
				14.601419448852539,
				21.316627502441406,
				14.601419448852539
			],
			"min":[
				-14.601417541503906,
				0,
				-14.601417541503906
			],
			"type":"VEC3"
		},
		{
			"bufferView":9,
			"componentType":5126,
			"count":248,
			"type":"VEC3"
		},
		{
			"bufferView":10,
			"componentType":5126,
			"count":248,
			"type":"VEC2"
		},
		{
			"bufferView":11,
			"componentType":5123,
			"count":564,
			"type":"SCALAR"
		},
		{
			"bufferView":12,
			"componentType":5126,
			"count":102,
			"max":[
				14.108577728271484,
				21.316627502441406,
				14.108577728271484
			],
			"min":[
				-14.108577728271484,
				0,
				-14.108576774597168
			],
			"type":"VEC3"
		},
		{
			"bufferView":13,
			"componentType":5126,
			"count":102,
			"type":"VEC3"
		},
		{
			"bufferView":14,
			"componentType":5126,
			"count":102,
			"type":"VEC2"
		},
		{
			"bufferView":15,
			"componentType":5123,
			"count":288,
			"type":"SCALAR"
		}
	],
	"bufferViews":[
		{
			"buffer":0,
			"byteLength":336,
			"byteOffset":0,
			"target":34962
		},
		{
			"buffer":0,
			"byteLength":336,
			"byteOffset":336,
			"target":34962
		},
		{
			"buffer":0,
			"byteLength":224,
			"byteOffset":672,
			"target":34962
		},
		{
			"buffer":0,
			"byteLength":144,
			"byteOffset":896,
			"target":34963
		},
		{
			"buffer":0,
			"byteLength":32616,
			"byteOffset":1040,
			"target":34962
		},
		{
			"buffer":0,
			"byteLength":32616,
			"byteOffset":33656,
			"target":34962
		},
		{
			"buffer":0,
			"byteLength":21744,
			"byteOffset":66272,
			"target":34962
		},
		{
			"buffer":0,
			"byteLength":12276,
			"byteOffset":88016,
			"target":34963
		},
		{
			"buffer":0,
			"byteLength":2976,
			"byteOffset":100292,
			"target":34962
		},
		{
			"buffer":0,
			"byteLength":2976,
			"byteOffset":103268,
			"target":34962
		},
		{
			"buffer":0,
			"byteLength":1984,
			"byteOffset":106244,
			"target":34962
		},
		{
			"buffer":0,
			"byteLength":1128,
			"byteOffset":108228,
			"target":34963
		},
		{
			"buffer":0,
			"byteLength":1224,
			"byteOffset":109356,
			"target":34962
		},
		{
			"buffer":0,
			"byteLength":1224,
			"byteOffset":110580,
			"target":34962
		},
		{
			"buffer":0,
			"byteLength":816,
			"byteOffset":111804,
			"target":34962
		},
		{
			"buffer":0,
			"byteLength":576,
			"byteOffset":112620,
			"target":34963
		}
	],
	"samplers":[
		{
			"magFilter":9729,
			"minFilter":9987
		}
	],
	"buffers":[
		{
			"byteLength":113196,
			"uri":"arena_final.bin"
		}
	]
}
