{
	"asset":{
		"generator":"Khronos glTF Blender I/O v4.2.57",
		"version":"2.0"
	},
	"scene":0,
	"scenes":[
		{
			"extras":{
				"sprytile_data":{
					"auto_reload":false,
					"world_pixels":32
				}
			},
			"name":"Scene",
			"nodes":[
				0
			]
		}
	],
	"nodes":[
		{
			"mesh":0,
			"name":"Plane"
		}
	],
	"meshes":[
		{
			"name":"Plane",
			"primitives":[
				{
					"attributes":{
						"POSITION":0,
						"NORMAL":1,
						"TEXCOORD_0":2
					},
					"indices":3
				}
			]
		}
	],
	"accessors":[
		{
			"bufferView":0,
			"componentType":5126,
			"count":3880,
			"max":[
				21.324052810668945,
				24.730512619018555,
				14.601417541503906
			],
			"min":[
				-21.324052810668945,
				0,
				-27.474761962890625
			],
			"type":"VEC3"
		},
		{
			"bufferView":1,
			"componentType":5126,
			"count":3880,
			"type":"VEC3"
		},
		{
			"bufferView":2,
			"componentType":5126,
			"count":3880,
			"type":"VEC2"
		},
		{
			"bufferView":3,
			"componentType":5123,
			"count":10692,
			"type":"SCALAR"
		}
	],
	"bufferViews":[
		{
			"buffer":0,
			"byteLength":46560,
			"byteOffset":0,
			"target":34962
		},
		{
			"buffer":0,
			"byteLength":46560,
			"byteOffset":46560,
			"target":34962
		},
		{
			"buffer":0,
			"byteLength":31040,
			"byteOffset":93120,
			"target":34962
		},
		{
			"buffer":0,
			"byteLength":21384,
			"byteOffset":124160,
			"target":34963
		}
	],
	"buffers":[
		{
			"byteLength":145544,
			"uri":"arena_square.bin"
		}
	]
}
