{
	"asset":{
		"generator":"Khronos glTF Blender I/O v4.2.57",
		"version":"2.0"
	},
	"scene":0,
	"scenes":[
		{
			"extras":{
				"sprytile_data":{
					"auto_reload":false,
					"world_pixels":32
				}
			},
			"name":"Scene",
			"nodes":[
				0
			]
		}
	],
	"nodes":[
		{
			"mesh":0,
			"name":"lich"
		}
	],
	"materials":[
		{
			"doubleSided":true,
			"name":"Material",
			"pbrMetallicRoughness":{
				"baseColorTexture":{
					"index":0
				},
				"metallicFactor":0,
				"roughnessFactor":0.5
			}
		}
	],
	"meshes":[
		{
			"name":"Cylinder",
			"primitives":[
				{
					"attributes":{
						"POSITION":0,
						"NORMAL":1,
						"TEXCOORD_0":2
					},
					"indices":3,
					"material":0
				}
			]
		}
	],
	"textures":[
		{
			"sampler":0,
			"source":0
		}
	],
	"images":[
		{
			"mimeType":"image/png",
			"name":"lich Base Color",
			"uri":"lich%20Base%20Color.png"
		}
	],
	"accessors":[
		{
			"bufferView":0,
			"componentType":5126,
			"count":703,
			"max":[
				0.5609277486801147,
				1.7529194355010986,
				0.3274870812892914
			],
			"min":[
				-0.5332913398742676,
				0.0019391652895137668,
				-0.3274870812892914
			],
			"type":"VEC3"
		},
		{
			"bufferView":1,
			"componentType":5126,
			"count":703,
			"type":"VEC3"
		},
		{
			"bufferView":2,
			"componentType":5126,
			"count":703,
			"type":"VEC2"
		},
		{
			"bufferView":3,
			"componentType":5123,
			"count":2148,
			"type":"SCALAR"
		}
	],
	"bufferViews":[
		{
			"buffer":0,
			"byteLength":8436,
			"byteOffset":0,
			"target":34962
		},
		{
			"buffer":0,
			"byteLength":8436,
			"byteOffset":8436,
			"target":34962
		},
		{
			"buffer":0,
			"byteLength":5624,
			"byteOffset":16872,
			"target":34962
		},
		{
			"buffer":0,
			"byteLength":4296,
			"byteOffset":22496,
			"target":34963
		}
	],
	"samplers":[
		{
			"magFilter":9729,
			"minFilter":9987
		}
	],
	"buffers":[
		{
			"byteLength":26792,
			"uri":"lich_mesh.bin"
		}
	]
}
