{
	"asset":{
		"generator":"Khronos glTF Blender I/O v4.2.57",
		"version":"2.0"
	},
	"scene":0,
	"scenes":[
		{
			"extras":{
				"sprytile_data":{
					"auto_reload":false,
					"world_pixels":32
				}
			},
			"name":"Scene",
			"nodes":[
				11
			]
		}
	],
	"nodes":[
		{
			"name":"head",
			"rotation":[
				0.7071067690849304,
				-3.090859834742332e-08,
				1.3767875373105198e-07,
				0.7071067690849304
			],
			"translation":[
				0,
				0.5799471139907837,
				0
			]
		},
		{
			"children":[
				0
			],
			"name":"top",
			"rotation":[
				0,
				1.1920925402364446e-07,
				0,
				1
			],
			"translation":[
				0,
				0.7066020965576172,
				0
			]
		},
		{
			"name":"robe_hand.R",
			"rotation":[
				-0.446892112493515,
				0.5479848384857178,
				0.4468922019004822,
				0.5479848980903625
			],
			"scale":[
				0.9999999403953552,
				0.9999998211860657,
				1
			],
			"translation":[
				-0.007080876734107733,
				0.6932699680328369,
				9.314694437989601e-08
			]
		},
		{
			"name":"robe_hand.L",
			"rotation":[
				-0.446892112493515,
				-0.5479848384857178,
				-0.4468922019004822,
				0.5479848980903625
			],
			"scale":[
				0.9999999403953552,
				0.9999998211860657,
				1
			],
			"translation":[
				0.007080876734107733,
				0.6932699680328369,
				9.314694437989601e-08
			]
		},
		{
			"children":[
				1,
				2,
				3
			],
			"name":"bottom",
			"scale":[
				1,
				0.9999999403953552,
				1
			]
		},
		{
			"children":[
				4
			],
			"name":"Root"
		},
		{
			"name":"Hand.R",
			"rotation":[
				-0.6841607093811035,
				-2.862776966594538e-07,
				1.6072466735295166e-07,
				0.7293313145637512
			],
			"translation":[
				-4.0262495559773015e-09,
				2.2351741790771484e-07,
				3.7252885221050747e-08
			]
		},
		{
			"children":[
				6
			],
			"name":"staff",
			"rotation":[
				0.047165580093860626,
				0.7055320739746094,
				-0.04716559499502182,
				0.705531895160675
			],
			"scale":[
				1.0000001192092896,
				1.000000238418579,
				1.0000001192092896
			],
			"translation":[
				-0.4389682710170746,
				0.787375271320343,
				1.057908178836442e-07
			]
		},
		{
			"name":"lantern",
			"rotation":[
				-0.5468356013298035,
				-0.4482978284358978,
				0.5468354225158691,
				0.44829779863357544
			],
			"translation":[
				6.467146818067704e-10,
				0.022955402731895447,
				-0.0073040202260017395
			]
		},
		{
			"children":[
				8
			],
			"name":"Hand.L",
			"rotation":[
				-0.44829776883125305,
				-0.5468354821205139,
				-0.448297917842865,
				0.5468355417251587
			],
			"translation":[
				0.4389682710170746,
				0.787375271320343,
				1.057908178836442e-07
			]
		},
		{
			"mesh":0,
			"name":"lich",
			"skin":0
		},
		{
			"children":[
				10,
				5,
				7,
				9
			],
			"name":"Lich armature"
		}
	],
	"materials":[
		{
			"doubleSided":true,
			"name":"Material",
			"pbrMetallicRoughness":{
				"baseColorTexture":{
					"index":0
				},
				"metallicFactor":0,
				"roughnessFactor":0.5
			}
		}
	],
	"meshes":[
		{
			"name":"Cylinder",
			"primitives":[
				{
					"attributes":{
						"POSITION":0,
						"NORMAL":1,
						"TEXCOORD_0":2,
						"JOINTS_0":3,
						"WEIGHTS_0":4
					},
					"indices":5,
					"material":0
				}
			]
		}
	],
	"textures":[
		{
			"sampler":0,
			"source":0
		}
	],
	"images":[
		{
			"mimeType":"image/png",
			"name":"lich Base Color",
			"uri":"lich%20Base%20Color.png"
		}
	],
	"skins":[
		{
			"inverseBindMatrices":6,
			"joints":[
				5,
				4,
				1,
				0,
				2,
				3,
				7,
				6,
				9,
				8
			],
			"name":"Lich armature"
		}
	],
	"accessors":[
		{
			"bufferView":0,
			"componentType":5126,
			"count":703,
			"max":[
				0.5609277486801147,
				1.7529194355010986,
				0.3274870812892914
			],
			"min":[
				-0.5332913398742676,
				0.0019391652895137668,
				-0.3274870812892914
			],
			"type":"VEC3"
		},
		{
			"bufferView":1,
			"componentType":5126,
			"count":703,
			"type":"VEC3"
		},
		{
			"bufferView":2,
			"componentType":5126,
			"count":703,
			"type":"VEC2"
		},
		{
			"bufferView":3,
			"componentType":5121,
			"count":703,
			"type":"VEC4"
		},
		{
			"bufferView":4,
			"componentType":5126,
			"count":703,
			"type":"VEC4"
		},
		{
			"bufferView":5,
			"componentType":5123,
			"count":2148,
			"type":"SCALAR"
		},
		{
			"bufferView":6,
			"componentType":5126,
			"count":10,
			"type":"MAT4"
		}
	],
	"bufferViews":[
		{
			"buffer":0,
			"byteLength":8436,
			"byteOffset":0,
			"target":34962
		},
		{
			"buffer":0,
			"byteLength":8436,
			"byteOffset":8436,
			"target":34962
		},
		{
			"buffer":0,
			"byteLength":5624,
			"byteOffset":16872,
			"target":34962
		},
		{
			"buffer":0,
			"byteLength":2812,
			"byteOffset":22496,
			"target":34962
		},
		{
			"buffer":0,
			"byteLength":11248,
			"byteOffset":25308,
			"target":34962
		},
		{
			"buffer":0,
			"byteLength":4296,
			"byteOffset":36556,
			"target":34963
		},
		{
			"buffer":0,
			"byteLength":640,
			"byteOffset":40852
		}
	],
	"samplers":[
		{
			"magFilter":9729,
			"minFilter":9987
		}
	],
	"buffers":[
		{
			"byteLength":41492,
			"uri":"lich_final.bin"
		}
	]
}
